<svg xmlns="http://www.w3.org/2000/svg" xmlns:xlink="http://www.w3.org/1999/xlink" viewBox="0 0 395.2 60.8"><defs><radialGradient id="radial-gradient" cx="365.19" cy="30.41" r="30" gradientUnits="userSpaceOnUse"><stop offset="0" stop-color="#fff"/><stop offset="0" stop-color="#fbe8cf"/><stop offset="0" stop-color="#fbe6cc"/><stop offset="0" stop-color="#fae1c1"/><stop offset="0" stop-color="#f9dbb5"/><stop offset="0" stop-color="#f9dab2"/><stop offset="0" stop-color="#f9d9b1"/><stop offset="0" stop-color="#f9d7ad"/><stop offset="0" stop-color="#f7d09f"/><stop offset="0" stop-color="#f7ce9b"/><stop offset="1" stop-color="#f4ba70"/></radialGradient><radialGradient id="radial-gradient-2" cx="365.58" cy="31.03" r="20.22" gradientUnits="userSpaceOnUse"><stop offset="0" stop-color="#fff"/><stop offset="0" stop-color="#f9f9fa"/><stop offset="0.01" stop-color="#c0c8cd"/><stop offset="0.02" stop-color="#97a4ac"/><stop offset="0.03" stop-color="#7d8e98"/><stop offset="0.03" stop-color="#748691"/><stop offset="0.05" stop-color="#72848f"/><stop offset="0.32" stop-color="#4f6674"/><stop offset="0.57" stop-color="#365161"/><stop offset="0.81" stop-color="#274455"/><stop offset="1" stop-color="#223f51"/></radialGradient><radialGradient id="radial-gradient-3" cx="362.22" cy="26.71" r="17.41" gradientUnits="userSpaceOnUse"><stop offset="0" stop-color="#fff"/><stop offset="0" stop-color="#eaedee"/><stop offset="0" stop-color="#cbd1d5"/><stop offset="0" stop-color="#afbac0"/><stop offset="0" stop-color="#99a7af"/><stop offset="0" stop-color="#8898a1"/><stop offset="0" stop-color="#7d8e98"/><stop offset="0" stop-color="#768892"/><stop offset="0" stop-color="#748691"/><stop offset="0.52" stop-color="#48606d"/><stop offset="1" stop-color="#223f4e"/></radialGradient></defs><title>arabic-logo</title><g id="Layer_2" data-name="Layer 2"><g id="Layer_1-2" data-name="Layer 1"><rect x="335.2" y="0.4" width="60" height="60" rx="6.9" ry="6.9" style="fill:url(#radial-gradient)"/><path d="M115.8,39.5a75.5,75.5,0,0,0,8.4-.9l-3.4-4A35.5,35.5,0,0,1,115.8,39.5Z" style="fill:none"/><path d="M11.5,37.3a31.3,31.3,0,0,0,4.6-5.2,57.9,57.9,0,0,1-4.7-4.6q-1.6,1.8-4.9,5.2A45.3,45.3,0,0,0,11.5,37.3Z" style="fill:#f2f2f2"/><path d="M26,40.1,25.2,36q-.4-2.1-.6-4Q19,34.6,19,39.2a4.8,4.8,0,0,0,.4,1.8l1.1,2.4,1.5,2.8,1.6,3.1a17.8,17.8,0,0,1-5.8,3.7,21.5,21.5,0,0,1-7.6,1.2q-3.7,0-5.5-1.9T3.1,46.4a15.8,15.8,0,0,1,.8-4.4l-2.5-.6a33.5,33.5,0,0,0-1.4,8Q0,55,2.6,57.9t7.6,2.9A19.6,19.6,0,0,0,18.6,59a14.9,14.9,0,0,0,6-4.9,11.6,11.6,0,0,0,2.2-6.8,26.3,26.3,0,0,0-.2-3.4Q26.3,42.1,26,40.1Z" style="fill:#f2f2f2"/><path d="M53,26.7a31.3,31.3,0,0,0,4.6-5.2,57.9,57.9,0,0,1-4.7-4.6Q51.3,18.7,48,22A45.4,45.4,0,0,0,53,26.7Z" style="fill:#f2f2f2"/><path d="M95.3,24.6a11.6,11.6,0,0,0-3.5,2.6,4.7,4.7,0,0,0-1.5,3,4.9,4.9,0,0,0,.4,1.7l1,2.2,1.3,2.6,1.5,3a53.9,53.9,0,0,1-5.6-.9A19.4,19.4,0,0,1,84,37.2l.6-2a53.1,53.1,0,0,1,1.7-5.1,3.4,3.4,0,0,0-2-.6,2.9,2.9,0,0,0-1.7.5,2.7,2.7,0,0,0-1,1.2L81,33a48.2,48.2,0,0,1-2.3,5.6l-1.8.5H74.7L71.7,39q.7-1.6,1.4-3.4l1.3-3.3a3,3,0,0,0-1.7-.6,2.4,2.4,0,0,0-1.3.4,3.1,3.1,0,0,0-1,1l-.9,1.5a12.7,12.7,0,0,1-1.9,2.7,4.5,4.5,0,0,1-2.1,1.1,16.5,16.5,0,0,1-3.4.3,12.2,12.2,0,0,1-5.7-1.4l2.5-5.7a3.1,3.1,0,0,0-2.2-.8l-1.1.2a2.2,2.2,0,0,0-.9.7,31.7,31.7,0,0,0-1.8,3.3,6.5,6.5,0,0,1-1.7,2.4,9.4,9.4,0,0,1-5.3,1.3,13.3,13.3,0,0,1-3.1-.4A8.4,8.4,0,0,1,40,37.2q0-8.8.5-29l-6.6,3.6q1.5,14.8,3.8,28.5A5.1,5.1,0,0,0,40.1,44a10.8,10.8,0,0,0,5.2,1.3h.8l2.5-.2a10.9,10.9,0,0,0,2.6-.7A4.5,4.5,0,0,0,53.1,43l1.1-1.5a11.5,11.5,0,0,0,7.3,3.7h.9a16.2,16.2,0,0,0,3-.3A11.6,11.6,0,0,0,68,44a15.3,15.3,0,0,0,6.4,1.7,21.8,21.8,0,0,0,4.4-.4q2.2-.4,2.5-1.1l.7-1.3a33.5,33.5,0,0,0,13.2,2.8,25.7,25.7,0,0,0,1.6-4.2,14.1,14.1,0,0,0,.7-3.6A75.6,75.6,0,0,0,96,28.3Z" style="fill:#f2f2f2"/><path d="M126.1,35.9l-3.2-4.5a20.2,20.2,0,0,0,2.6-9.7l-.2-6.2,1.8-1.4q-1-2.5-1.3-3.7l-.9-3.1a6.5,6.5,0,0,0-4.2,1.4,4.3,4.3,0,0,0-1.6,3.5,34,34,0,0,0,.6,4.2,69.5,69.5,0,0,1,1.1,8.1,13.3,13.3,0,0,1-.5,3.8,97.1,97.1,0,0,0-7.5-7.6,78.7,78.7,0,0,0-7.4-6.2,6.7,6.7,0,0,0-2.2,2,4.5,4.5,0,0,0-.8,2.7,5.3,5.3,0,0,0,3.3,5h2a58.7,58.7,0,0,1,10.8,8.3,31.7,31.7,0,0,1-7.3,7.5h-2.2q-.2,0-.5,2a22.2,22.2,0,0,0-.3,3.3c0,.6,0,.8.1.8q6.7,0,11.1-.3a55.8,55.8,0,0,0,6.4-.7q.3,0,1.3-2.3a10,10,0,0,0,.9-3.3,3.2,3.2,0,0,0-.5-1.3Zm-10.3,3.6a35.5,35.5,0,0,0,4.9-4.9l3.4,4A75.5,75.5,0,0,1,115.8,39.5Z" style="fill:#f2f2f2"/><path d="M102.5,12.5a33.5,33.5,0,0,1,4.3-1.9l4.1-1.2.3-3.1-2.7.3a4.6,4.6,0,0,1-3.4-1.3,2.6,2.6,0,0,1,2.4-1.7q.9,0,.9.6v.2l1.3.2a4.2,4.2,0,0,0,.3-1.7Q110,0,107.4,0a3.7,3.7,0,0,0-2.1.8A6.9,6.9,0,0,0,103.4,3a5,5,0,0,0-.8,2.5q0,1.8,2.2,2.7l-2.5,1.5Z" style="fill:#f2f2f2"/><path d="M140.8,8.2a7.4,7.4,0,0,0-3,.6,5.1,5.1,0,0,0-2.2,1.7,4.2,4.2,0,0,0-.8,2.5l1.4,18.8q.7,8.1,1,13.5l3.6-.5-.4-17.9-.6-4.5V16.5l2.5-1.4C141.6,12.8,141.5,10.5,140.8,8.2Z" style="fill:#f2f2f2"/><path d="M171.7,32a16.1,16.1,0,0,0-3.2,2.4,11.3,11.3,0,0,0,2.8,1.5l3.2.8,3.7.4q-1-3.9-1.6-7.2A27.7,27.7,0,0,0,171.7,32Z" style="fill:none"/><path d="M171.2,11.8q-2.7-2.5-4.3-4.3l-2.2,2.3-2.5,2.5a34.6,34.6,0,0,0,4.7,4.4A28.2,28.2,0,0,0,171.2,11.8Z" style="fill:#f2f2f2"/><path d="M176.3,15.6a28.7,28.7,0,0,0,4.2-4.8l-4.3-4.3a65.2,65.2,0,0,1-4.6,4.8A32.8,32.8,0,0,0,176.3,15.6Z" style="fill:#f2f2f2"/><path d="M213.5,36.6a2.6,2.6,0,0,0-.6-1.1,44.9,44.9,0,0,1-14.7,3.1,7.4,7.4,0,0,1-3.3-3,9.4,9.4,0,0,1-1.2-4.2A16.6,16.6,0,0,1,197,30a13,13,0,0,1,3.4-.4,16.5,16.5,0,0,1,5.8,1.3l1.2-2.2q-4.5-5.1-8.4-5.1a6.8,6.8,0,0,0-4.3,1.7,13.5,13.5,0,0,0-3.5,4.6,12.6,12.6,0,0,0-1.5,5.6,5.5,5.5,0,0,0,1.2,3.4H187a12,12,0,0,1-5.9-1.5V18.7l-2.7,1.7-3,2.3v1.1l.2,1.1a30.2,30.2,0,0,0-3.5,2,30.8,30.8,0,0,0-3.1,2.3,13.3,13.3,0,0,0-2.1,2.1,15.2,15.2,0,0,0-1.6,3.5,14,14,0,0,0-.9,3.3q0,1,1.9,2.3a18.7,18.7,0,0,0,4.1,2.2l2.4.6,3.5.4,2.2-4.5.5,2.1a4.4,4.4,0,0,0,2.5,3,11.1,11.1,0,0,0,4.7,1h.7c4,0,7.5-.1,10.4-.4a73.2,73.2,0,0,0,8.9-1.3,21.7,21.7,0,0,0,5.2-1.5,4.3,4.3,0,0,0,1.5-1.6,4.6,4.6,0,0,0,.6-2.3A5,5,0,0,0,213.5,36.6Zm-39,.2-3.2-.8a11.3,11.3,0,0,1-2.8-1.5,16.1,16.1,0,0,1,3.2-2.4,27.7,27.7,0,0,1,4.8-2.1q.6,3.3,1.6,7.2Z" style="fill:#f2f2f2"/><path d="M229.2,31a3.8,3.8,0,0,0-2.7,1.1,3.4,3.4,0,0,0-1.2,2.5q0,3.1,5.5,3.8l5.3.3a14.9,14.9,0,0,0-2.9-5.7A5.2,5.2,0,0,0,229.2,31Z" style="fill:none"/><path d="M255.5,31.4a18.8,18.8,0,0,0-4,2.1,14.8,14.8,0,0,0-3.3,2.9q3,2.5,9.7,3.2a22.9,22.9,0,0,1-1.5-3.9A24.2,24.2,0,0,1,255.5,31.4Z" style="fill:none"/><path d="M317.4,33.1a2.3,2.3,0,0,0-1.6-1.1,2.9,2.9,0,0,0-2.3,1.1,20.3,20.3,0,0,0-2.5,4.3,26.3,26.3,0,0,0,8.7,2.2,17.4,17.4,0,0,0-.9-3.8A9.4,9.4,0,0,0,317.4,33.1Z" style="fill:none"/><path d="M281.8,47.4q-1.6,1.8-4.9,5.2a45.4,45.4,0,0,0,5,4.7,31.3,31.3,0,0,0,4.6-5.2A58,58,0,0,1,281.8,47.4Z" style="fill:#f2f2f2"/><path d="M323.5,33a15.6,15.6,0,0,0-3.2-5.4,5.3,5.3,0,0,0-3.8-2,5.1,5.1,0,0,0-2.9.9,10.4,10.4,0,0,0-2.5,2.5,44.2,44.2,0,0,0-3.2,5.7,7,7,0,0,1-6.7,4.1l-5-.2,2.7-5.5-4-.2-3.5-.7-2.9-1-2.7-1.3-3.3-2.1a18.2,18.2,0,0,0-3.7-2,9.6,9.6,0,0,0-3.4-.6,10.6,10.6,0,0,0-3.8.7,6.6,6.6,0,0,0-2.8,1.9,4.3,4.3,0,0,0-1,2.8,5.1,5.1,0,0,0,.4,1.8,4.3,4.3,0,0,0,.9,1.5,16,16,0,0,1,3.5-1.7,10.4,10.4,0,0,1,3-.4,5.7,5.7,0,0,1,2.1.4l1.9,1,2,1.3,2.4,1.4q-2.4.5-6.7,1.8l-2.7.6-3.1.3h-6.2a3.4,3.4,0,0,1-2.6-1.4,18.7,18.7,0,0,1-2.7-5.2,46.5,46.5,0,0,0-1.8-4.4,6.3,6.3,0,0,0-1.2-1.6,2,2,0,0,0-1.4-.6,7.9,7.9,0,0,0-4.8,1.8,14.7,14.7,0,0,0-4,4.9,19,19,0,0,0-1.8,6.8c-.9.2-1.9,1.1-2.9,1.1h-2.5a27.1,27.1,0,0,0-1.8-8,16.9,16.9,0,0,0-3.3-5.6,6.2,6.2,0,0,0-4.1-2,5.4,5.4,0,0,0-3.8,1.7,13,13,0,0,0-3.1,4.7,16,16,0,0,0-1.2,6.1,7.8,7.8,0,0,0,1.2,4.5,7,7,0,0,0,3.7,2.6,33.9,33.9,0,0,0,8.4,1.1,10.9,10.9,0,0,1-4.4,3.9,13.9,13.9,0,0,1-6.3,1.4,24.3,24.3,0,0,1-6.1-.8l-.9,2.3a29,29,0,0,0,4.4,3.1,8.7,8.7,0,0,0,3.6,1.4,11.9,11.9,0,0,0,8.3-2.7c2.4-2.1,4.1-3.7,5-7.7h3.4c.1,0,.1-.5.2-.5a10.3,10.3,0,0,0,5.3-2.1,17.7,17.7,0,0,0,5,1.6,32.6,32.6,0,0,0,6.5.6l.8-2.6a7.6,7.6,0,0,0,4.5,2.5c.1,0,.1.5.2.5h.3a50.5,50.5,0,0,0,7.1-.6,21.9,21.9,0,0,0,3.5-.8,19.3,19.3,0,0,0,3-1.2,31.4,31.4,0,0,0,3.2-1.8,36.3,36.3,0,0,1,4.3-2.3,18.3,18.3,0,0,1,4-1.3l.9.2a20.8,20.8,0,0,0-.8,4.2q0,1.1,3.2,1.9a32.1,32.1,0,0,0,7.3.8h.7a10,10,0,0,0,3-.6,7.7,7.7,0,0,0,2.9-2,25,25,0,0,0,6.5,2.3,34.1,34.1,0,0,0,7.2.8,9.5,9.5,0,0,0,2.3-2.9,7.2,7.2,0,0,0,1-3.3A19,19,0,0,0,323.5,33Zm-92.8,5.4q-5.5-.7-5.5-3.8a3.4,3.4,0,0,1,1.2-2.5,3.8,3.8,0,0,1,2.7-1.1,5.2,5.2,0,0,1,3.9,2,14.9,14.9,0,0,1,2.9,5.7Zm17.4-2a14.8,14.8,0,0,1,3.3-2.9,18.8,18.8,0,0,1,4-2.1,24.2,24.2,0,0,0,.8,4.3,22.9,22.9,0,0,0,1.5,3.9Q251.2,38.9,248.1,36.4Zm62.9,1a20.3,20.3,0,0,1,2.5-4.3,2.9,2.9,0,0,1,2.3-1.1,2.3,2.3,0,0,1,1.6,1.1,9.4,9.4,0,0,1,1.5,2.8,17.4,17.4,0,0,1,.9,3.8A26.3,26.3,0,0,1,311,37.5Z" style="fill:#f2f2f2"/><g style="isolation:isolate"><path d="M375.4,7.2a67.8,67.8,0,0,0,2.1,7.9c.8,2.6,1.7,5.2,2.4,7.9a37.8,37.8,0,0,1,1.4,8,24.3,24.3,0,0,1-1,8.4,27.8,27.8,0,0,1-2.7,6.1,20.9,20.9,0,0,1-3.9,4.8,17.7,17.7,0,0,1-5,3.2,18.7,18.7,0,0,1-6,1.4h-.8a10,10,0,0,1-3.5-.7,13.5,13.5,0,0,1-3.1-1.7,26.8,26.8,0,0,1-2.7-2.3L350,47.7a.8.8,0,0,1-.1-.7,5.6,5.6,0,0,1,.3-1.1l.5-1.2.6-1.1h2.3l1.6.3,1.6.3,1.5.2h1.5a19.1,19.1,0,0,0,4.6-.5,14.7,14.7,0,0,0,3.9-1.5,13.8,13.8,0,0,0,3.2-2.6,16.3,16.3,0,0,0,2.5-3.6l.4-1a3.2,3.2,0,0,0,.1-.9,3.1,3.1,0,0,0-.1-.9l-.4-1-1.7-3-1.7-3-1.6-3.1-1.5-3.1a8.1,8.1,0,0,1-.6-4.1,9.7,9.7,0,0,1,1.4-4,10.7,10.7,0,0,1,2.9-3.2A10.2,10.2,0,0,1,375.4,7.2Z" style="fill:url(#radial-gradient-2)"/></g><path d="M349.8,47.5a10,10,0,0,1-.7-1.2,1.4,1.4,0,0,1,0-.8,12.4,12.4,0,0,1,1.4-3.2.9.9,0,0,1,.6-.3,7.2,7.2,0,0,1,2.5.3,23.6,23.6,0,0,0,9,.4,14.4,14.4,0,0,0,10.8-8.1,3.5,3.5,0,0,0-.1-3.5l-3.7-6.7c-.9-1.6-1.7-3.3-2.5-4.9-1.6-3.4-1.1-6.7,1.1-9.7a10,10,0,0,1,6.1-3.9h.3l.8,1.2-1.9.6a10.3,10.3,0,0,0-6.4,7.8,7.7,7.7,0,0,0,.6,4.7c1.5,3.3,3.2,6.4,5,9.5l1.6,2.8a3.4,3.4,0,0,1,.1,3.3,14.4,14.4,0,0,1-7.7,7.3,16.7,16.7,0,0,1-5.1,1.1,28.8,28.8,0,0,1-8.1-.8,6.5,6.5,0,0,0-1.6,0,.6.6,0,0,0-.5.3L350,46.8A3.3,3.3,0,0,0,349.8,47.5Z" style="fill:url(#radial-gradient-3)"/></g></g></svg>